<svg width="192" height="24" viewBox="0 0 192 24" fill="none" xmlns="http://www.w3.org/2000/svg">
<g clip-path="url(#clip0_9530_78)">
<path d="M16.3061 0.153619L14.5428 5.92514H6.00857L7.63077 0.22274L16.3061 0.153619ZM22.936 18.0903L17.9988 23.9655H0.859833L5.40906 8.2061H13.9786L11.1574 18.0557L22.936 18.0903ZM50.0403 5.9597H26.8005C27.2707 4.39298 28.07 3.06818 29.1985 1.9853C30.5856 0.672021 32.0197 0.0153809 33.5009 0.0153809H45.4911C48.5239 0.0153809 50.0403 1.59362 50.0403 4.7501C50.0403 5.53346 50.0403 5.93666 50.0403 5.9597ZM49.5466 8.17154L49.4055 8.7245C49.0294 9.92258 48.3828 12.1114 47.4659 15.2909C46.8782 17.2954 45.973 18.9773 44.7505 20.3367C42.5405 22.7789 39.5783 24 35.8636 24H31.6671C29.4101 24 27.6233 23.5853 26.3067 22.7559C24.6845 21.7651 23.8734 20.233 23.8734 18.1594C23.8734 17.0535 24.0498 15.8784 24.4024 14.6343L26.1657 8.24066H34.3825L31.9492 16.6387C31.8551 17.0304 31.8081 17.3299 31.8081 17.5373C31.8081 17.9981 32.0197 18.2861 32.4429 18.4013H37.5564C38.1911 18.24 38.6614 17.6525 38.967 16.6387L41.5061 8.2061L49.5466 8.17154ZM74.9534 0.153619L73.2606 5.9597H50.3735L54.1468 0.153619H74.9534ZM72.7669 8.2061L70.8273 14.5306H59.5072L56.8623 23.9655H47.5875L52.0662 8.2061H72.7669ZM100.369 0.153619L98.7468 5.89058H75.2597L78.9978 0.153619H100.369ZM91.2349 8.2061L86.9678 23.9655H78.892L83.2649 8.2061H91.2349Z" fill="white"/>
<path d="M126.164 0.153564L124.541 5.89053H101.055L104.793 0.153564H126.164ZM117.03 8.20605L112.763 23.9654H104.687L109.06 8.20605H117.03ZM147.903 5.95965H132.668L137.746 0.153564H146.633L147.903 5.95965ZM151.852 23.9654H143.001L140.603 14.5651H135.595L128.507 23.9654H118.174L130.799 8.17149H148.396L151.852 23.9654ZM181.637 0.188126L175.959 5.92509L158.891 5.89053L157.48 0.257245H166.332L167.002 2.95293L169.611 0.222685L181.637 0.188126ZM173.773 8.20605L169.506 12.8025L171.904 24L162.735 23.9654L162.065 21.0624L159.42 24H147.464L159.843 10.5907L159.349 8.27517L173.773 8.20605ZM191.132 0.153564L189.51 5.95965H181.011L182.704 0.153564H191.132ZM188.981 8.20605L184.573 23.9654H176.003L180.482 8.20605H188.981Z" fill="#FDBF5A"/>
</g>
<defs>
<clipPath id="clip0_9530_78">
<rect width="192" height="24" fill="white"/>
</clipPath>
</defs>
</svg>
