<svg width="60" height="60" viewBox="0 0 60 60" fill="none" xmlns="http://www.w3.org/2000/svg">
<path fill-rule="evenodd" clip-rule="evenodd" d="M30 60C46.5685 60 60 46.5685 60 30C60 26.5206 59.4077 23.1795 58.3183 20.0721L20.0721 58.3183C23.1795 59.4077 26.5206 60 30 60ZM5.75774 47.6759L20.4776 32.956L3.48147 15.9598C1.25896 20.1489 0 24.9274 0 30C0 36.6089 2.13702 42.7186 5.75774 47.6759ZM15.9598 3.48147L32.956 20.4776L47.6759 5.75774C42.7186 2.13702 36.6089 0 30 0C24.9274 0 20.1489 1.25896 15.9598 3.48147Z" fill="#FDBF5A"/>
<path d="M9.88861 9.96436L13.6008 13.6765" stroke="#FDBF5A" stroke-width="4"/>
<path d="M17.8298 48.0883L14.1176 51.8004" stroke="#FDBF5A" stroke-width="4"/>
<path d="M24.4474 41.0294L20.7353 44.7416" stroke="#FDBF5A" stroke-width="4"/>
<path d="M31.0651 33.9706L27.3529 37.6827" stroke="#FDBF5A" stroke-width="4"/>
<path d="M44.3004 19.8529L40.5882 23.5651" stroke="#FDBF5A" stroke-width="4"/>
<path d="M50.918 12.7941L47.2059 16.5062" stroke="#FDBF5A" stroke-width="4"/>
<path d="M16.7647 16.7646L20.4768 20.4768" stroke="#FDBF5A" stroke-width="4"/>
<path d="M24.2647 24.2646L27.9769 27.9768" stroke="#FDBF5A" stroke-width="4"/>
<path d="M37.6827 26.9119L33.9706 30.624" stroke="#FDBF5A" stroke-width="4"/>
</svg>
